<?xml version="1.0" encoding="UTF-8"?>
<svg xmlns="http://www.w3.org/2000/svg" width="965.0002" height="1024" viewBox="0 0 965.0002 1024">
  <g id="e605670c-813f-4f6d-baed-b06b1d8e8bed" data-name="container - RED">
    <path id="b5c13617-f756-425d-8626-13912b94e3ea" data-name="back layer" d="M185,.15,915,160h79v864H166a52,52,0,0,1-52-52V754.2921L183.4662,2.4109Z" transform="translate(-29)" fill="#78082a"></path>
    <path id="bb2dba85-1987-4185-b312-0971ccbeaff7" data-name="primary facade" d="M156,0H842a52,52,0,0,1,52,52V720a0,0,0,0,1,0,0H156a0,0,0,0,1,0,0V0A0,0,0,0,1,156,0Z" fill="#e51050"></path>
    <polygon id="ed0cee58-4a6c-48f5-ba79-71a24715e095" data-name="flap" points="0 814 156 720 156 0 0 94 0 814" fill="#e85984"></polygon>
  </g>
  <g id="a7e61290-f17b-4d86-876f-6c3f72965a7e" data-name="product subscript template">
    <path d="M422.4487,818.1406v33.9131H474.29v27H422.4487v35.209h56.377V942.127H384.6479V790.9248h94.1778v27.2158Z" transform="translate(-29)" fill="#fff"></path>
    <path d="M599.8691,913.3984V942.127h-94.61V790.9248h37.8012V913.3984Z" transform="translate(-29)" fill="#fff"></path>
    <path d="M614.4893,887.4785V845.5732c0-34.5605,21.8164-58.1044,61.5615-58.1044,34.7763,0,56.5928,16.416,57.6728,48.1679H698.9463c-.8633-13.1758-7.9922-20.9512-22.4639-20.9512-15.12,0-23.7607,9.9356-23.7607,26.1358v51.4092c0,16.2,8.4248,26.1357,23.5449,26.1357,15.5518,0,22.248-7.9922,22.8965-22.4639h35.208c-2.16,33.9122-22.8965,49.6807-59.1846,49.6807C637.6016,945.583,614.4893,922.0391,614.4893,887.4785Z" transform="translate(-29)" fill="#fff"></path>
  </g>
  <g id="f44d60ab-e12f-4eb7-8979-eb708e653a94" data-name="product initial template">
    <path d="M611.292,472.916H491.5908l-22.23,87.211H370.1787l114.002-399.0049H616.9922L737.2637,560.127H635.8018ZM550.3008,226.6729l-40.47,172.142h82.08Z" transform="translate(-29)" fill="#fff"></path>
  </g>
</svg>
